<?xml version="1.0" encoding="UTF-8" standalone="no"?>
<!DOCTYPE svg PUBLIC "-//W3C//DTD SVG 1.1//EN" "http://www.w3.org/Graphics/SVG/1.1/DTD/svg11.dtd">
<svg xmlns="http://www.w3.org/2000/svg" xmlns:xlink="http://www.w3.org/1999/xlink" version="1.1" width="251.515pt" height="101.048pt" viewBox="0 0 251.515 101.048">
<symbol id="font_0_3">
<path d="M .34600003 .06600001 L .34600003 0 L .493 .011000001 L .493 .042000005 C .423 .042000005 .41500003 .049000004 .41500003 .098000008 L .41500003 .705 L .271 .694 L .271 .663 C .34100003 .663 .349 .656 .349 .607 L .349 .39100004 C .32 .42700003 .277 .45300005 .22299999 .45300005 C .10500001 .45300005 0 .35500003 0 .22600001 C 0 .09900001 .098 0 .21200001 0 C .276 0 .321 .034 .34600003 .06600001 M .34600003 .33400003 L .34600003 .12900001 C .34600003 .111 .34600003 .109000008 .335 .092 C .305 .044 .26 .022000002 .21700001 .022000002 C .17200002 .022000002 .136 .048 .11200001 .086 C .086 .127 .083000008 .18400002 .083000008 .22500003 C .083000008 .26200003 .085 .32200004 .114 .367 C .13500002 .39800004 .17300001 .43100003 .227 .43100003 C .262 .43100003 .30400003 .41600005 .335 .37100003 C .34600003 .35400004 .34600003 .35200004 .34600003 .33400003 Z "/>
</symbol>
<symbol id="font_0_4">
<path d="M .08400001 .263 C .09 .41200004 .17400001 .43700005 .20800002 .43700005 C .31100003 .43700005 .321 .30200003 .321 .263 L .08400001 .263 M .083000008 .24200002 L .36200003 .24200002 C .38400004 .24200002 .38700003 .24200002 .38700003 .263 C .38700003 .36200003 .33300004 .45900003 .20800002 .45900003 C .09200001 .45900003 0 .35600005 0 .23100002 C 0 .097 .105000007 0 .22000002 0 C .342 0 .38700003 .111 .38700003 .13000001 C .38700003 .14000002 .379 .14200002 .374 .14200002 C .365 .14200002 .36300005 .136 .36100004 .128 C .326 .025000003 .236 .025000003 .22600001 .025000003 C .17600002 .025000003 .136 .055000005 .113000009 .092 C .083000008 .14000002 .083000008 .20600002 .083000008 .24200002 Z "/>
</symbol>
<symbol id="font_0_5">
<path d="M .15400002 .411 L .29700003 .411 L .29700003 .44200004 L .15400002 .44200004 L .15400002 .626 L .12900001 .626 C .12799999 .544 .098000008 .43700005 0 .43300004 L 0 .411 L .085 .411 L .085 .135 C .085 .012000001 .178 0 .21400002 0 C .28500004 0 .31300003 .071 .31300003 .135 L .31300003 .19200002 L .28800003 .19200002 L .28800003 .13700001 C .28800003 .063 .25800003 .025000003 .22100002 .025000003 C .15400002 .025000003 .15400002 .116000007 .15400002 .13300002 L .15400002 .411 Z "/>
</symbol>
<use xlink:href="#font_0_3" transform="matrix(9.9626,0,0,-9.9626,3.6597276,28.105584)"/>
<use xlink:href="#font_0_4" transform="matrix(9.9626,0,0,-9.9626,9.139158,28.105584)"/>
<use xlink:href="#font_0_5" transform="matrix(9.9626,0,0,-9.9626,13.47289,28.105584)"/>
<symbol id="font_1_2">
<path d="M 0 0 L .069000009 0 L .069000009 1.7300001 L .33300004 1.7300001 L .33300004 1.7990002 L 0 1.7990002 L 0 0 Z "/>
</symbol>
<symbol id="font_1_6">
<path d="M 0 0 L .069000009 0 L .069000009 .602 L 0 .602 L 0 0 Z "/>
</symbol>
<symbol id="font_1_4">
<path d="M 0 0 L .33300004 0 L .33300004 .069000009 L .069000009 .069000009 L .069000009 1.799 L 0 1.799 L 0 0 Z "/>
</symbol>
<use xlink:href="#font_1_2" transform="matrix(9.9626,0,0,-9.9626,22.065808,22.51617)"/>
<use xlink:href="#font_1_6" transform="matrix(9.9626,0,0,-9.9626,22.065808,28.503521)"/>
<use xlink:href="#font_1_4" transform="matrix(9.9626,0,0,-9.9626,22.065808,46.417215)"/>
<symbol id="font_2_1">
<path d="M .15699999 .16499996 L 0 .038999976 L .027999998 0 L .15699999 .083000008 L .286 .0009999871 L .314 .037999989 L .15699999 .16499996 Z "/>
</symbol>
<use xlink:href="#font_2_1" transform="matrix(9.9626,0,0,-9.9626,29.077139,9.253778)"/>
<symbol id="font_3_2">
<path d="M .32700003 .156 C .32700003 .17 .312 .17 .303 .17 C .291 .17 .284 .17 .28 .157 C .24900002 .052000006 .198 .036000004 .177 .036000004 C .16700001 .036000004 .161 .039 .161 .058000003 C .161 .08100001 .17 .10300001 .194 .163 L .261 .336 C .266 .349 .26900003 .361 .26900003 .37 C .26900003 .423 .21700001 .46 .155 .46 C .051000004 .46 0 .326 0 .304 C 0 .29 .015000001 .29 .024 .29 C .036000004 .29 .043 .29 .047000003 .303 C .07800001 .408 .12900001 .424 .15 .424 C .16 .424 .16600001 .421 .16600001 .402 C .16600001 .379 .157 .357 .133 .297 L .066 .124000009 C .061 .11100001 .058000003 .09900001 .058000003 .09 C .058000003 .037 .11 0 .172 0 C .27600003 0 .32700003 .134 .32700003 .156 Z "/>
</symbol>
<use xlink:href="#font_3_2" transform="matrix(9.9626,0,0,-9.9626,28.685805,14.603695)"/>
<use xlink:href="#font_2_1" transform="matrix(9.9626,0,0,-9.9626,49.41114,9.253778)"/>
<symbol id="font_3_3">
<path d="M .42200003 .522 C .425 .53300008 .42700003 .542 .42700003 .556 C .42700003 .62100008 .363 .65400007 .301 .65400007 C .18200001 .65400007 .114 .51500007 .114 .49800004 C .114 .48400004 .12900001 .48400004 .13800001 .48400004 C .155 .48400004 .156 .485 .163 .5 C .201 .586 .25700004 .61800006 .296 .61800006 C .305 .61800006 .32000003 .61800006 .32000003 .58100005 C .32000003 .56200006 .317 .551 .314 .53800007 L .21800001 .157 C .201 .089 .162 .036 .111 .036 C .102000009 .036 .1 .036 .087000008 .038000004 C .119 .060000004 .12100001 .093 .12100001 .098000008 C .12100001 .120000008 .104 .14400001 .071 .14400001 C .034 .14400001 0 .111 0 .072 C 0 .025000006 .048 0 .112 0 C .176 0 .3 .034999998 .33 .156 L .42200003 .522 Z "/>
</symbol>
<use xlink:href="#font_3_3" transform="matrix(9.9626,0,0,-9.9626,47.699525,16.53644)"/>
<use xlink:href="#font_2_1" transform="matrix(9.9626,0,0,-9.9626,68.155139,6.7627818)"/>
<symbol id="font_3_1">
<path d="M .266 .66700008 C .27 .68100008 .27 .683 .27 .6840001 C .27 .697 .259 .702 .24800001 .702 C .244 .702 .24300002 .702 .24100001 .70100006 L .112 .69500008 C .098000008 .69400009 .08000001 .6930001 .08000001 .665 C .08000001 .6470001 .09900001 .6470001 .106000009 .6470001 C .11700001 .6470001 .135 .6470001 .14800002 .64500007 L .0040000008 .068 C .0030000024 .064 0 .049000004 0 .045 C 0 .021000002 .019000005 0 .048000006 0 C .066 0 .09500001 .009000001 .10900001 .040000004 C .112 .049000004 .12600002 .10700001 .15500002 .223 C .17400001 .22100002 .261 .209 .261 .148 C .261 .141 .261 .13800001 .25800003 .127 C .255 .11400001 .255 .113000009 .255 .10300001 C .255 .038000004 .317 0 .38300003 0 C .48300005 0 .52000007 .148 .52000007 .156 C .52000007 .17 .505 .17 .496 .17 C .478 .17 .476 .16800002 .47100003 .15 C .463 .12100001 .439 .036000004 .388 .036000004 C .372 .036000004 .36200003 .045 .36200003 .075 C .36200003 .08500001 .36400003 .104 .37 .127 C .373 .13800001 .373 .14500001 .373 .15200001 C .373 .23700002 .272 .253 .2 .26 C .21000003 .267 .23400001 .283 .289 .336 C .366 .412 .40800003 .424 .43800003 .424 C .45700003 .424 .464 .41300003 .464 .412 C .414 .405 .395 .365 .395 .34 C .395 .318 .412 .294 .44500003 .294 C .464 .294 .517 .307 .517 .378 C .517 .43 .48400004 .46 .441 .46 C .38 .46 .32500003 .416 .266 .359 C .256 .348 .20800002 .302 .17000002 .281 L .266 .66700008 Z "/>
</symbol>
<use xlink:href="#font_3_1" transform="matrix(9.9626,0,0,-9.9626,67.12213,14.603695)"/>
<symbol id="font_4_1">
<path d="M .33300004 .38900004 C .31500004 .42600004 .286 .45300005 .24100001 .45300005 C .124 .45300005 0 .30600003 0 .16000001 C 0 .06600001 .055000005 0 .133 0 C .153 0 .20300001 .0040000008 .263 .075 C .27100004 .033000005 .30600003 0 .35400004 0 C .38900004 0 .41200004 .023000002 .42800004 .055000005 C .44500003 .091000009 .45800004 .15200001 .45800004 .15400002 C .45800004 .16400002 .44900004 .16400002 .44600005 .16400002 C .43600003 .16400002 .43500004 .16000001 .43200005 .14600002 C .41500003 .081 .397 .022000002 .35600005 .022000002 C .32900004 .022000002 .32600004 .048 .32600004 .068 C .32600004 .09 .32800005 .098000008 .33900003 .14200002 C .35000003 .18400002 .35200004 .19400002 .36100004 .23200003 L .397 .37200005 C .40400005 .40000005 .40400005 .40200005 .40400005 .40600003 C .40400005 .42300005 .39200003 .43300004 .37500004 .43300004 C .35100005 .43300004 .33600004 .411 .33300004 .38900004 M .26800005 .13000001 C .263 .112 .263 .11000001 .24800001 .093 C .20400001 .038000004 .163 .022000002 .135 .022000002 C .08499999 .022000002 .07100001 .077 .07100001 .116000007 C .07100001 .16600001 .103 .28900004 .126 .335 C .157 .39400003 .202 .43100003 .242 .43100003 C .307 .43100003 .32100005 .34900005 .32100005 .34300003 C .32100005 .337 .31900005 .33100004 .31800003 .32600004 L .26800005 .13000001 Z "/>
</symbol>
<use xlink:href="#font_4_1" transform="matrix(9.9626,0,0,-9.9626,25.858504,29.423584)"/>
<symbol id="font_5_1">
<path d="M .22600001 .63600006 C .22600001 .66300007 .224 .66400006 .19600001 .66400006 C .132 .601 .041 .6 0 .6 L 0 .564 C .023999997 .564 .09000001 .564 .14500001 .592 L .14500001 .082 C .14500001 .049000004 .14500001 .036000004 .04500001 .036000004 L .0069999995 .036000004 L .0069999995 0 C .024999999 .001 .148 .004 .185 .004 C .21600002 .004 .34200005 .001 .36400003 0 L .36400003 .036000004 L .32600004 .036000004 C .22600001 .036000004 .22600001 .049000004 .22600001 .082 L .22600001 .63600006 Z "/>
</symbol>
<use xlink:href="#font_5_1" transform="matrix(6.9738,0,0,-6.9738,31.486142,30.807999)"/>
<use xlink:href="#font_4_1" transform="matrix(9.9626,0,0,-9.9626,45.5565,29.423584)"/>
<symbol id="font_5_2">
<path d="M .442 .18200001 L .40800003 .18200001 C .40500004 .16000001 .39500005 .101 .38200004 .091000009 C .374 .085 .29700003 .085 .28300003 .085 L .099 .085 C .20400003 .178 .23900002 .20600002 .29900003 .25300003 C .37300004 .312 .442 .374 .442 .469 C .442 .59000006 .33600004 .66400006 .20800004 .66400006 C .084 .66400006 0 .577 0 .485 C 0 .43400003 .043000007 .42900003 .053000004 .42900003 C .077 .42900003 .10600001 .446 .10600001 .48200003 C .10600001 .5 .099 .535 .047000007 .535 C .078 .606 .146 .628 .19300002 .628 C .293 .628 .34500004 .55 .34500004 .469 C .34500004 .38200004 .28300003 .31300003 .25100003 .277 L .010000005 .039 C 0 .030000002 0 .028 0 0 L .41200004 0 L .442 .18200001 Z "/>
</symbol>
<use xlink:href="#font_5_2" transform="matrix(6.9738,0,0,-6.9738,50.863348,30.807999)"/>
<use xlink:href="#font_4_1" transform="matrix(9.9626,0,0,-9.9626,65.2545,29.423584)"/>
<symbol id="font_5_3">
<path d="M .219 .35400004 C .29700003 .35400004 .35300002 .3 .35300002 .193 C .35300002 .069000009 .28100003 .032 .223 .032 C .18300002 .032 .095 .043000007 .053000008 .102000009 C .10000001 .10400001 .111 .13700001 .111 .158 C .111 .19 .087 .213 .056000007 .213 C .028 .213 0 .19600001 0 .155 C 0 .061000006 .104 0 .22500001 0 C .36400003 0 .46 .09300001 .46 .193 C .46 .27100004 .39600004 .34900005 .286 .37200005 C .39100004 .41000004 .42900003 .48500005 .42900003 .546 C .42900003 .625 .33800004 .684 .22700002 .684 C .116 .684 .031 .63 .031 .55 C .031 .51600006 .053000008 .49700005 .083000008 .49700005 C .11400001 .49700005 .134 .52 .134 .548 C .134 .577 .11400001 .598 .083000008 .6 C .118 .644 .187 .65500006 .22400002 .65500006 C .26900003 .65500006 .33200003 .633 .33200003 .546 C .33200003 .504 .31800003 .45800004 .29200004 .42700003 C .25900004 .38900004 .23100002 .38700003 .18100001 .38400004 C .156 .38200004 .154 .38200004 .149 .38100005 C .147 .38100005 .139 .37900005 .139 .36800004 C .139 .35400004 .148 .35400004 .165 .35400004 L .219 .35400004 Z "/>
</symbol>
<use xlink:href="#font_5_3" transform="matrix(6.9738,0,0,-6.9738,70.49858,30.947476)"/>
<symbol id="font_4_2">
<path d="M .192 .694 C .192 .695 .192 .705 .179 .705 C .156 .705 .083000008 .697 .057 .695 C .049 .694 .038 .693 .038 .675 C .038 .663 .047000003 .663 .062000004 .663 C .11 .663 .112 .656 .112 .646 C .112 .639 .103 .605 .098000008 .584 L .015999999 .25800003 C .0040000008 .20800002 0 .19200002 0 .15700002 C 0 .062000004 .053 0 .127 0 C .24500002 0 .36800004 .14900002 .36800004 .293 C .36800004 .38400004 .31500004 .45300005 .235 .45300005 C .18900001 .45300005 .148 .42400003 .118 .39300005 L .192 .694 M .098000008 .316 C .104 .33800004 .104 .34000004 .113000009 .351 C .162 .41600005 .207 .43100003 .233 .43100003 C .26900003 .43100003 .29600004 .40100003 .29600004 .337 C .29600004 .27800004 .263 .16300002 .24500002 .12500002 C .212 .058000003 .16600001 .022000002 .127 .022000002 C .092999998 .022000002 .060000007 .049000004 .060000007 .123 C .060000007 .14200002 .060000007 .16100002 .076000008 .22400002 L .098000008 .316 Z "/>
</symbol>
<use xlink:href="#font_4_2" transform="matrix(9.9626,0,0,-9.9626,26.423237,44.213586)"/>
<use xlink:href="#font_5_1" transform="matrix(6.9738,0,0,-6.9738,30.991139,45.597997)"/>
<use xlink:href="#font_4_2" transform="matrix(9.9626,0,0,-9.9626,46.12124,44.213586)"/>
<use xlink:href="#font_5_2" transform="matrix(6.9738,0,0,-6.9738,50.368349,45.597997)"/>
<use xlink:href="#font_4_2" transform="matrix(9.9626,0,0,-9.9626,65.81924,44.213586)"/>
<use xlink:href="#font_5_3" transform="matrix(6.9738,0,0,-6.9738,70.003589,45.737474)"/>
<symbol id="font_1_3">
<path d="M .26400004 0 L .333 0 L .333 1.7990002 L 0 1.7990002 L 0 1.7300001 L .26400004 1.7300001 L .26400004 0 Z "/>
</symbol>
<symbol id="font_1_7">
<path d="M 0 0 L .068999979 0 L .068999979 .602 L 0 .602 L 0 0 Z "/>
</symbol>
<symbol id="font_1_5">
<path d="M .26400004 .069000009 L 0 .069000009 L 0 0 L .333 0 L .333 1.799 L .26400004 1.799 L .26400004 .069000009 Z "/>
</symbol>
<use xlink:href="#font_1_3" transform="matrix(9.9626,0,0,-9.9626,74.661739,22.51617)"/>
<use xlink:href="#font_1_7" transform="matrix(9.9626,0,0,-9.9626,77.29186,28.503521)"/>
<use xlink:href="#font_1_5" transform="matrix(9.9626,0,0,-9.9626,74.661739,46.417215)"/>
<symbol id="font_0_2">
<path d="M .63100007 .19400002 C .646 .19400002 .665 .19400002 .665 .214 C .665 .23400001 .646 .23400001 .632 .23400001 L .033 .23400001 C .019000002 .23400001 0 .23400001 0 .214 C 0 .19400002 .019000002 .19400002 .034 .19400002 L .63100007 .19400002 M .632 0 C .646 0 .665 0 .665 .02000001 C .665 .040000008 .646 .040000008 .63100007 .040000008 L .034 .040000008 C .019000002 .040000008 0 .040000008 0 .02000001 C 0 0 .019000002 0 .033 0 L .632 0 Z "/>
</symbol>
<use xlink:href="#font_0_2" transform="matrix(9.9626,0,0,-9.9626,84.5589,26.670969)"/>
<use xlink:href="#font_2_1" transform="matrix(9.9626,0,0,-9.9626,95.22613,22.725779)"/>
<use xlink:href="#font_3_2" transform="matrix(9.9626,0,0,-9.9626,94.83579,28.075695)"/>
<symbol id="font_1_1">
<path d="M 0 .037 C 0 .021000028 0 0 .020999998 0 C .042999999 0 .042999999 .02000004 .042999999 .037 L .042999999 .6050001 C .042999999 .62100008 .042999999 .6420001 .022 .6420001 C 0 .6420001 0 .62200006 0 .6050001 L 0 .037 Z "/>
</symbol>
<use xlink:href="#font_1_1" transform="matrix(9.9626,0,0,-9.9626,101.54257,16.747773)"/>
<use xlink:href="#font_1_1" transform="matrix(9.9626,0,0,-9.9626,101.54257,22.725769)"/>
<use xlink:href="#font_1_1" transform="matrix(9.9626,0,0,-9.9626,101.54257,28.702767)"/>
<use xlink:href="#font_1_1" transform="matrix(9.9626,0,0,-9.9626,101.54257,34.680765)"/>
<use xlink:href="#font_1_1" transform="matrix(9.9626,0,0,-9.9626,101.54257,40.65876)"/>
<use xlink:href="#font_4_1" transform="matrix(9.9626,0,0,-9.9626,103.8175,22.028573)"/>
<use xlink:href="#font_5_2" transform="matrix(6.9738,0,0,-6.9738,109.12434,23.412987)"/>
<use xlink:href="#font_4_1" transform="matrix(9.9626,0,0,-9.9626,123.515499,22.028573)"/>
<use xlink:href="#font_5_3" transform="matrix(6.9738,0,0,-6.9738,128.75959,23.552464)"/>
<use xlink:href="#font_4_2" transform="matrix(9.9626,0,0,-9.9626,104.38223,36.818574)"/>
<use xlink:href="#font_5_2" transform="matrix(6.9738,0,0,-6.9738,108.62834,38.202985)"/>
<use xlink:href="#font_4_2" transform="matrix(9.9626,0,0,-9.9626,124.08024,36.818574)"/>
<use xlink:href="#font_5_3" transform="matrix(6.9738,0,0,-6.9738,128.26459,38.34246)"/>
<use xlink:href="#font_1_1" transform="matrix(9.9626,0,0,-9.9626,134.29659,16.747757)"/>
<use xlink:href="#font_1_1" transform="matrix(9.9626,0,0,-9.9626,134.29659,22.725754)"/>
<use xlink:href="#font_1_1" transform="matrix(9.9626,0,0,-9.9626,134.29659,28.702752)"/>
<use xlink:href="#font_1_1" transform="matrix(9.9626,0,0,-9.9626,134.29659,34.680749)"/>
<use xlink:href="#font_1_1" transform="matrix(9.9626,0,0,-9.9626,134.29659,40.658746)"/>
<symbol id="font_6_1">
<path d="M .57600006 0 C .59300008 0 .611 0 .611 .019999996 C .611 .040000008 .59300008 .040000008 .57600006 .040000008 L .035000005 .040000008 C .018 .040000008 0 .040000008 0 .019999996 C 0 0 .018 0 .035000005 0 L .57600006 0 Z "/>
</symbol>
<use xlink:href="#font_6_1" transform="matrix(9.9626,0,0,-9.9626,139.2139,25.704575)"/>
<use xlink:href="#font_2_1" transform="matrix(9.9626,0,0,-9.9626,149.92115,22.725756)"/>
<use xlink:href="#font_3_3" transform="matrix(9.9626,0,0,-9.9626,148.21053,30.008418)"/>
<use xlink:href="#font_1_1" transform="matrix(9.9626,0,0,-9.9626,155.82659,16.74775)"/>
<use xlink:href="#font_1_1" transform="matrix(9.9626,0,0,-9.9626,155.82659,22.725747)"/>
<use xlink:href="#font_1_1" transform="matrix(9.9626,0,0,-9.9626,155.82659,28.702744)"/>
<use xlink:href="#font_1_1" transform="matrix(9.9626,0,0,-9.9626,155.82659,34.68074)"/>
<use xlink:href="#font_1_1" transform="matrix(9.9626,0,0,-9.9626,155.82659,40.658739)"/>
<use xlink:href="#font_4_1" transform="matrix(9.9626,0,0,-9.9626,158.1015,22.02855)"/>
<use xlink:href="#font_5_1" transform="matrix(6.9738,0,0,-6.9738,163.72916,23.412964)"/>
<use xlink:href="#font_4_1" transform="matrix(9.9626,0,0,-9.9626,177.79952,22.02855)"/>
<use xlink:href="#font_5_3" transform="matrix(6.9738,0,0,-6.9738,183.0446,23.55244)"/>
<use xlink:href="#font_4_2" transform="matrix(9.9626,0,0,-9.9626,158.66727,36.81855)"/>
<use xlink:href="#font_5_1" transform="matrix(6.9738,0,0,-6.9738,163.23416,38.20296)"/>
<use xlink:href="#font_4_2" transform="matrix(9.9626,0,0,-9.9626,178.36527,36.81855)"/>
<use xlink:href="#font_5_3" transform="matrix(6.9738,0,0,-6.9738,182.5486,38.342439)"/>
<use xlink:href="#font_1_1" transform="matrix(9.9626,0,0,-9.9626,188.58159,16.747735)"/>
<use xlink:href="#font_1_1" transform="matrix(9.9626,0,0,-9.9626,188.58159,22.72573)"/>
<use xlink:href="#font_1_1" transform="matrix(9.9626,0,0,-9.9626,188.58159,28.702729)"/>
<use xlink:href="#font_1_1" transform="matrix(9.9626,0,0,-9.9626,188.58159,34.680727)"/>
<use xlink:href="#font_1_1" transform="matrix(9.9626,0,0,-9.9626,188.58159,40.658723)"/>
<symbol id="font_0_1">
<path d="M .35300002 .31300003 L .632 .31300003 C .646 .31300003 .665 .31300003 .665 .333 C .665 .35300002 .646 .35300002 .632 .35300002 L .35300002 .35300002 L .35300002 .633 C .35300002 .647 .35300002 .666 .33300004 .666 C .31300003 .666 .31300003 .647 .31300003 .633 L .31300003 .35300002 L .033 .35300002 C .019000002 .35300002 0 .35300002 0 .333 C 0 .31300003 .019000002 .31300003 .033 .31300003 L .31300003 .31300003 L .31300003 .033000005 C .31300003 .019000002 .31300003 0 .33300004 0 C .35300002 0 .35300002 .019000002 .35300002 .033000005 L .35300002 .31300003 Z "/>
</symbol>
<use xlink:href="#font_0_1" transform="matrix(9.9626,0,0,-9.9626,193.22992,28.822846)"/>
<use xlink:href="#font_2_1" transform="matrix(9.9626,0,0,-9.9626,204.16515,20.234736)"/>
<use xlink:href="#font_3_1" transform="matrix(9.9626,0,0,-9.9626,203.13214,28.07565)"/>
<use xlink:href="#font_1_1" transform="matrix(9.9626,0,0,-9.9626,211.9386,16.747727)"/>
<use xlink:href="#font_1_1" transform="matrix(9.9626,0,0,-9.9626,211.9386,22.725724)"/>
<use xlink:href="#font_1_1" transform="matrix(9.9626,0,0,-9.9626,211.9386,28.70272)"/>
<use xlink:href="#font_1_1" transform="matrix(9.9626,0,0,-9.9626,211.9386,34.680719)"/>
<use xlink:href="#font_1_1" transform="matrix(9.9626,0,0,-9.9626,211.9386,40.658716)"/>
<use xlink:href="#font_4_1" transform="matrix(9.9626,0,0,-9.9626,214.21352,22.028527)"/>
<use xlink:href="#font_5_1" transform="matrix(6.9738,0,0,-6.9738,219.84117,23.412941)"/>
<use xlink:href="#font_4_1" transform="matrix(9.9626,0,0,-9.9626,233.91153,22.028527)"/>
<use xlink:href="#font_5_2" transform="matrix(6.9738,0,0,-6.9738,239.21839,23.412941)"/>
<use xlink:href="#font_4_2" transform="matrix(9.9626,0,0,-9.9626,214.77829,36.818529)"/>
<use xlink:href="#font_5_1" transform="matrix(6.9738,0,0,-6.9738,219.34519,38.202939)"/>
<use xlink:href="#font_4_2" transform="matrix(9.9626,0,0,-9.9626,234.47629,36.818529)"/>
<use xlink:href="#font_5_2" transform="matrix(6.9738,0,0,-6.9738,238.72339,38.202939)"/>
<use xlink:href="#font_1_1" transform="matrix(9.9626,0,0,-9.9626,244.69263,16.747712)"/>
<use xlink:href="#font_1_1" transform="matrix(9.9626,0,0,-9.9626,244.69263,22.725708)"/>
<use xlink:href="#font_1_1" transform="matrix(9.9626,0,0,-9.9626,244.69263,28.702706)"/>
<use xlink:href="#font_1_1" transform="matrix(9.9626,0,0,-9.9626,244.69263,34.680704)"/>
<use xlink:href="#font_1_1" transform="matrix(9.9626,0,0,-9.9626,244.69263,40.6587)"/>
<path transform="matrix(1,0,0,-1,124.945,25.504998)" stroke-width="1.59404" stroke-linecap="butt" stroke-miterlimit="10" stroke-linejoin="miter" fill="none" stroke="#929292" d="M -7.65375 -36.85092 L -7.65375 -23.6285 "/>
<path transform="matrix(0,-1,-1,-0,117.29125,49.1335)" d="M 3.78581 0 L -2.27148 3.02866 L 0 0 L -2.27148 -3.02866 " fill="#929292"/>
<path transform="matrix(1,0,0,-1,124.945,25.504998)" stroke-width="1.59404" stroke-linecap="butt" stroke-miterlimit="10" stroke-linejoin="miter" fill="none" stroke="#929292" d="M 45.63837 -36.85092 L 45.63837 -23.6285 "/>
<path transform="matrix(0,-1,-1,-0,170.58338,49.1335)" d="M 3.78581 0 L -2.27148 3.02866 L 0 0 L -2.27148 -3.02866 " fill="#929292"/>
<path transform="matrix(1,0,0,-1,124.945,25.504998)" stroke-width="1.59404" stroke-linecap="butt" stroke-miterlimit="10" stroke-linejoin="miter" fill="none" stroke="#929292" d="M 101.48161 -36.85092 L 101.48161 -23.6285 "/>
<path transform="matrix(0,-1,-1,-0,226.4266,49.1335)" d="M 3.78581 0 L -2.27148 3.02866 L 0 0 L -2.27148 -3.02866 " fill="#929292"/>
<use xlink:href="#font_1_2" transform="matrix(6.9738199,0,0,-6.9738199,100.54546,80.106128)"/>
<use xlink:href="#font_1_6" transform="matrix(6.9738199,0,0,-6.9738199,100.54546,84.29727)"/>
<use xlink:href="#font_1_4" transform="matrix(6.9738199,0,0,-6.9738199,100.54546,96.83615)"/>
<use xlink:href="#font_2_1" transform="matrix(6.9738199,0,0,-6.9738199,103.78949,70.821758)"/>
<use xlink:href="#font_3_2" transform="matrix(6.9738199,0,0,-6.9738199,103.51626,74.566699)"/>
<symbol id="font_6_2">
<path d="M .38900004 .194 C .38900004 .30100004 .3 .38800005 .195 .38800005 C .087 .38800005 0 .29900003 0 .194 C 0 .08800001 .087 0 .195 0 C .3 0 .38900004 .087000008 .38900004 .194 Z "/>
</symbol>
<use xlink:href="#font_6_2" transform="matrix(6.9738199,0,0,-6.9738199,115.42966,74.12037)"/>
<use xlink:href="#font_6_2" transform="matrix(6.9738199,0,0,-6.9738199,129.2169,74.12037)"/>
<use xlink:href="#font_6_2" transform="matrix(6.9738199,0,0,-6.9738199,103.304958,84.473369)"/>
<use xlink:href="#font_4_1" transform="matrix(6.9738199,0,0,-6.9738199,113.66115,84.94061)"/>
<use xlink:href="#font_5_2" transform="matrix(4.88166,0,0,-4.88166,117.37594,85.9104)"/>
<use xlink:href="#font_4_1" transform="matrix(6.9738199,0,0,-6.9738199,127.44975,84.94061)"/>
<use xlink:href="#font_5_3" transform="matrix(4.88166,0,0,-4.88166,131.1206,86.00803)"/>
<use xlink:href="#font_6_2" transform="matrix(6.9738199,0,0,-6.9738199,103.30496,94.82636)"/>
<use xlink:href="#font_4_2" transform="matrix(6.9738199,0,0,-6.9738199,114.05647,95.29361)"/>
<use xlink:href="#font_5_2" transform="matrix(4.88166,0,0,-4.88166,117.02945,96.2634)"/>
<use xlink:href="#font_4_2" transform="matrix(6.9738199,0,0,-6.9738199,127.84577,95.29361)"/>
<use xlink:href="#font_5_3" transform="matrix(4.88166,0,0,-4.88166,130.77411,96.36103)"/>
<use xlink:href="#font_1_3" transform="matrix(6.9738199,0,0,-6.9738199,134.0348,80.106128)"/>
<use xlink:href="#font_1_7" transform="matrix(6.9738199,0,0,-6.9738199,135.8759,84.29727)"/>
<use xlink:href="#font_1_5" transform="matrix(6.9738199,0,0,-6.9738199,134.0348,96.83615)"/>
<use xlink:href="#font_1_2" transform="matrix(6.9738199,0,0,-6.9738199,153.83716,80.106128)"/>
<use xlink:href="#font_1_6" transform="matrix(6.9738199,0,0,-6.9738199,153.83716,84.29727)"/>
<use xlink:href="#font_1_4" transform="matrix(6.9738199,0,0,-6.9738199,153.83716,96.83615)"/>
<use xlink:href="#font_6_2" transform="matrix(6.9738199,0,0,-6.9738199,158.26055,74.12037)"/>
<use xlink:href="#font_2_1" transform="matrix(6.9738199,0,0,-6.9738199,171.31499,70.821758)"/>
<use xlink:href="#font_3_3" transform="matrix(6.9738199,0,0,-6.9738199,170.11685,75.91962)"/>
<use xlink:href="#font_6_2" transform="matrix(6.9738199,0,0,-6.9738199,182.50995,74.12037)"/>
<use xlink:href="#font_4_1" transform="matrix(6.9738199,0,0,-6.9738199,156.49205,84.94061)"/>
<use xlink:href="#font_5_1" transform="matrix(4.88166,0,0,-4.88166,160.4314,85.9104)"/>
<use xlink:href="#font_6_2" transform="matrix(6.9738199,0,0,-6.9738199,170.38527,84.473369)"/>
<use xlink:href="#font_4_1" transform="matrix(6.9738199,0,0,-6.9738199,180.74146,84.94061)"/>
<use xlink:href="#font_5_3" transform="matrix(4.88166,0,0,-4.88166,184.41233,86.00803)"/>
<use xlink:href="#font_4_2" transform="matrix(6.9738199,0,0,-6.9738199,156.88738,95.29361)"/>
<use xlink:href="#font_5_1" transform="matrix(4.88166,0,0,-4.88166,160.08492,96.2634)"/>
<use xlink:href="#font_6_2" transform="matrix(6.9738199,0,0,-6.9738199,170.38527,94.82636)"/>
<use xlink:href="#font_4_2" transform="matrix(6.9738199,0,0,-6.9738199,181.13678,95.29361)"/>
<use xlink:href="#font_5_3" transform="matrix(4.88166,0,0,-4.88166,184.06583,96.36103)"/>
<use xlink:href="#font_1_3" transform="matrix(6.9738199,0,0,-6.9738199,187.32582,80.106128)"/>
<use xlink:href="#font_1_7" transform="matrix(6.9738199,0,0,-6.9738199,189.16692,84.29727)"/>
<use xlink:href="#font_1_5" transform="matrix(6.9738199,0,0,-6.9738199,187.32582,96.83615)"/>
<use xlink:href="#font_1_2" transform="matrix(6.9738199,0,0,-6.9738199,209.25316,80.106128)"/>
<use xlink:href="#font_1_6" transform="matrix(6.9738199,0,0,-6.9738199,209.25316,84.29727)"/>
<use xlink:href="#font_1_4" transform="matrix(6.9738199,0,0,-6.9738199,209.25316,96.83615)"/>
<use xlink:href="#font_6_2" transform="matrix(6.9738199,0,0,-6.9738199,213.67656,74.12037)"/>
<use xlink:href="#font_6_2" transform="matrix(6.9738199,0,0,-6.9738199,227.46379,74.12037)"/>
<use xlink:href="#font_2_1" transform="matrix(6.9738199,0,0,-6.9738199,240.27809,69.07875)"/>
<use xlink:href="#font_3_1" transform="matrix(6.9738199,0,0,-6.9738199,239.555,74.56669)"/>
<use xlink:href="#font_4_1" transform="matrix(6.9738199,0,0,-6.9738199,211.90805,84.94061)"/>
<use xlink:href="#font_5_1" transform="matrix(4.88166,0,0,-4.88166,215.84741,85.9104)"/>
<use xlink:href="#font_4_1" transform="matrix(6.9738199,0,0,-6.9738199,225.69666,84.94061)"/>
<use xlink:href="#font_5_2" transform="matrix(4.88166,0,0,-4.88166,229.41146,85.9104)"/>
<use xlink:href="#font_6_2" transform="matrix(6.9738199,0,0,-6.9738199,240.01618,84.473369)"/>
<use xlink:href="#font_4_2" transform="matrix(6.9738199,0,0,-6.9738199,212.30339,95.29361)"/>
<use xlink:href="#font_5_1" transform="matrix(4.88166,0,0,-4.88166,215.50093,96.2634)"/>
<use xlink:href="#font_4_2" transform="matrix(6.9738199,0,0,-6.9738199,226.092,95.29361)"/>
<use xlink:href="#font_5_2" transform="matrix(4.88166,0,0,-4.88166,229.06496,96.2634)"/>
<use xlink:href="#font_6_2" transform="matrix(6.9738199,0,0,-6.9738199,240.01618,94.82636)"/>
<use xlink:href="#font_1_3" transform="matrix(6.9738199,0,0,-6.9738199,243.59444,80.106128)"/>
<use xlink:href="#font_1_7" transform="matrix(6.9738199,0,0,-6.9738199,245.43553,84.29727)"/>
<use xlink:href="#font_1_5" transform="matrix(6.9738199,0,0,-6.9738199,243.59444,96.83615)"/>
</svg>
